<svg width="191" height="165" viewBox="0 0 191 165" fill="none" xmlns="http://www.w3.org/2000/svg">
<path d="M190.033 90.6553L86.9401 90.6553L65.768 108.725L44.5958 90.6553H0L0 103.046C0 118.839 10.9114 131.705 24.4048 131.958C25.6596 139.764 28.696 146.817 33.2661 152.336C40.0257 160.498 49.8527 165 60.9345 165H129.099C140.18 165 150.007 160.498 156.767 152.325C161.337 146.806 164.373 139.754 165.628 131.948C172.796 131.819 179.235 128.127 183.702 122.329C187.874 116.771 190.099 109.995 190.033 103.046V90.6553Z" fill="#F5980C"/>
<path d="M45.9594 74.2275L65.753 88.7586L85.7221 74.2275L190.034 74.2275V70.1038C190.029 65.3523 188.382 60.7482 185.372 57.0674C182.362 53.3866 178.172 50.8543 173.51 49.8974C173.086 34.5931 166.797 21.7837 155.172 12.7836C144.421 4.41242 130.055 0 113.608 0L76.4269 0C41.1982 0 17.3355 19.9847 16.5247 49.8974C11.8622 50.8543 7.67284 53.3866 4.66271 57.0674C1.65258 60.7482 0.00581552 65.3523 0 70.1038L0 74.2275H45.9594Z" fill="#F5980C"/>
</svg>
